<?xml version="1.0" encoding="utf-8"?>
<!-- Generator: Adobe Illustrator 27.5.0, SVG Export Plug-In . SVG Version: 6.00 Build 0)  -->
<svg version="1.1" xmlns="http://www.w3.org/2000/svg" xmlns:xlink="http://www.w3.org/1999/xlink" x="0px" y="0px"
	 viewBox="0 0 500 500" style="enable-background:new 0 0 500 500;" xml:space="preserve">
<g id="BACKGROUND">
	<rect style="fill:#FFFFFF;" width="500" height="500"/>
</g>
<g id="OBJECTS">
	<g>
		<path style="fill:#1A3366;" d="M184.617,144.471c1.482,4.55-15.475,14.154-37.874,21.451c-22.4,7.297-41.76,9.524-43.242,4.975
			c-1.482-4.55,15.475-14.154,37.874-21.451S183.135,139.921,184.617,144.471z"/>
	</g>
	<g>
		
			<ellipse transform="matrix(0.3708 -0.9287 0.9287 0.3708 57.6634 509.0253)" style="fill:#DAA100;" cx="404.482" cy="211.958" rx="52.296" ry="52.296"/>
		
			<ellipse transform="matrix(0.3708 -0.9287 0.9287 0.3708 54.7337 504.7012)" style="fill:#F6DE2F;" cx="399.826" cy="211.958" rx="52.296" ry="52.296"/>
		<path style="fill:#DEE9FF;" d="M431.367,243.498c-17.392,17.391-45.689,17.391-63.081,0c-17.391-17.391-17.391-45.689,0-63.081
			c17.391-17.391,45.689-17.391,63.08,0.001C448.758,197.81,448.758,226.107,431.367,243.498z"/>
		<path style="opacity:0.9;fill:#FFFFFF;" d="M431.384,180.418c-17.392-17.391-45.689-17.391-63.08-0.001l63.081,63.081
			C448.776,226.107,448.776,197.81,431.384,180.418z"/>
		<path style="fill:#2E56C4;" d="M417.542,209.778h-15.474v-21.837c0-1.165-0.944-2.109-2.109-2.109
			c-1.165,0-2.109,0.944-2.109,2.109v23.946c0,1.165,0.944,2.109,2.109,2.109h17.583c1.165,0,2.109-0.944,2.109-2.109
			C419.651,210.723,418.707,209.778,417.542,209.778z"/>
		<g>
			<path style="fill:#2E56C4;" d="M399.826,171.216c-0.886,0-1.607,0.721-1.607,1.607v3.639c0,0.886,0.721,1.607,1.607,1.607
				c0.886,0,1.607-0.721,1.607-1.607v-3.639C401.433,171.937,400.712,171.216,399.826,171.216z"/>
			<path style="fill:#2E56C4;" d="M399.826,245.847c-0.886,0-1.607,0.721-1.607,1.607v3.639c0,0.886,0.721,1.607,1.607,1.607
				c0.886,0,1.607-0.721,1.607-1.607v-3.639C401.433,246.568,400.712,245.847,399.826,245.847z"/>
			<path style="fill:#2E56C4;" d="M364.33,210.351h-3.639c-0.886,0-1.607,0.721-1.607,1.607c0,0.886,0.721,1.607,1.607,1.607h3.639
				c0.887,0,1.608-0.721,1.608-1.607C365.938,211.072,365.217,210.351,364.33,210.351z"/>
			<path style="fill:#2E56C4;" d="M438.962,210.351h-3.639c-0.887,0-1.608,0.721-1.608,1.607c0,0.886,0.721,1.607,1.608,1.607h3.639
				c0.886,0,1.607-0.721,1.607-1.607C440.568,211.072,439.847,210.351,438.962,210.351z"/>
			<path style="fill:#2E56C4;" d="M373.591,187.995c0.313,0.313,0.725,0.47,1.136,0.47c0.412,0,0.823-0.157,1.136-0.47
				c0.626-0.626,0.626-1.645,0-2.273l-2.573-2.572c-0.607-0.608-1.667-0.607-2.273-0.001c-0.627,0.626-0.627,1.646,0,2.273
				L373.591,187.995z"/>
			<path style="fill:#2E56C4;" d="M426.062,235.921c-0.626-0.627-1.646-0.627-2.272-0.001c-0.304,0.303-0.472,0.708-0.472,1.138
				c0.001,0.43,0.168,0.833,0.471,1.135l2.573,2.573c0.304,0.304,0.707,0.471,1.137,0.471c0.429,0,0.833-0.168,1.136-0.471
				c0.627-0.626,0.627-1.646,0-2.273L426.062,235.921z"/>
			<path style="fill:#2E56C4;" d="M373.591,235.921l-2.573,2.573c-0.627,0.626-0.627,1.646,0,2.272
				c0.303,0.304,0.707,0.472,1.137,0.472s0.833-0.168,1.136-0.471l2.573-2.573c0.304-0.303,0.471-0.707,0.471-1.137
				c0-0.429-0.167-0.833-0.471-1.136C375.237,235.295,374.217,235.295,373.591,235.921z"/>
			<path style="fill:#2E56C4;" d="M426.362,183.149l-2.573,2.573c-0.304,0.303-0.471,0.707-0.471,1.137
				c0,0.43,0.168,0.833,0.471,1.136c0.313,0.313,0.725,0.47,1.136,0.47c0.412,0,0.823-0.157,1.136-0.47l2.573-2.573
				c0.627-0.626,0.627-1.646,0-2.272C428.029,182.542,426.969,182.542,426.362,183.149z"/>
		</g>
	</g>
	<g>
		<g>
			<g>
				<path style="fill:#E263A2;" d="M405.021,305.492c0-7.448,4.885-13.486,10.911-13.486h-78.594
					c-6.026,0-10.911,6.038-10.911,13.486s4.885,13.486,10.911,13.486h78.594C409.905,318.979,405.021,312.941,405.021,305.492z"/>
				<path style="fill:#C1327A;" d="M415.931,292.006c-6.026,0-10.911,6.038-10.911,13.486s4.885,13.486,10.911,13.486h41.878v-3.497
					h-4.1v-19.978h4.1v-3.497H415.931z"/>
			</g>
			<path style="fill:#EAE8F9;" d="M453.709,315.482h-36.34c-4.463,0-8.081-4.472-8.081-9.989l0,0c0-5.517,3.618-9.989,8.081-9.989
				h36.34V315.482z"/>
			<path style="fill:#ACABDF;" d="M424.679,305.493c0-5.517,3.618-9.989,8.081-9.989H417.37c-4.463,0-8.081,4.472-8.081,9.989
				c0,5.517,3.618,9.989,8.081,9.989h15.391C428.298,315.482,424.679,311.009,424.679,305.493z"/>
		</g>
		<g>
			<g>
				<path style="fill:#F6DE2F;" d="M405.021,332.465c0-7.448,4.885-13.486,10.911-13.486h-78.594
					c-6.026,0-10.911,6.038-10.911,13.486c0,7.448,4.885,13.486,10.911,13.486h78.594
					C409.905,345.951,405.021,339.913,405.021,332.465z"/>
				<path style="fill:#DAA100;" d="M415.931,318.979c-6.026,0-10.911,6.038-10.911,13.486c0,7.448,4.885,13.486,10.911,13.486
					h41.878v-3.497h-4.1v-19.978h4.1v-3.497H415.931z"/>
			</g>
			<path style="fill:#EAE8F9;" d="M453.709,342.454h-36.34c-4.463,0-8.081-4.472-8.081-9.989l0,0c0-5.517,3.618-9.989,8.081-9.989
				h36.34V342.454z"/>
			<path style="fill:#ACABDF;" d="M424.679,332.465c0-5.517,3.618-9.989,8.081-9.989H417.37c-4.463,0-8.081,4.472-8.081,9.989
				c0,5.517,3.618,9.989,8.081,9.989h15.391C428.298,342.454,424.679,337.982,424.679,332.465z"/>
		</g>
		<g>
			<g>
				<path style="fill:#80AEFF;" d="M405.021,278.52c0-7.448,4.885-13.486,10.911-13.486h-78.594
					c-6.026,0-10.911,6.038-10.911,13.486s4.885,13.486,10.911,13.486h78.594C409.905,292.006,405.021,285.968,405.021,278.52z"/>
				<path style="fill:#5285F2;" d="M415.931,265.034c-6.026,0-10.911,6.038-10.911,13.486s4.885,13.486,10.911,13.486h41.878v-3.497
					h-4.1v-19.978h4.1v-3.497H415.931z"/>
			</g>
			<path style="fill:#EAE8F9;" d="M453.709,288.509h-36.34c-4.463,0-8.081-4.472-8.081-9.989l0,0c0-5.517,3.618-9.989,8.081-9.989
				h36.34V288.509z"/>
			<path style="fill:#ACABDF;" d="M424.679,278.52c0-5.517,3.618-9.989,8.081-9.989H417.37c-4.463,0-8.081,4.472-8.081,9.989
				c0,5.517,3.618,9.989,8.081,9.989h15.391C428.298,288.509,424.679,284.037,424.679,278.52z"/>
		</g>
	</g>
	<g>
		<polyline style="fill:#C1327A;" points="77.295,398.596 77.295,402.083 251.393,402.083 251.393,398.596 164.344,387.286 
			77.295,398.596 		"/>
		<rect x="72.694" y="398.596" style="fill:#E263A2;" width="183.301" height="3.487"/>
		<g>
			<path style="fill:#EAE8F9;" d="M164.344,386.098c-3.589-9.111-13.955-14.032-23.743-14.323
				c-9.788-0.291-19.258,3.097-28.561,6.154c-9.303,3.057-19.088,5.856-28.764,4.355l16.479-12.608
				c9.8,2.082,12.791,0.568,21.447-1.493c8.656-2.06,17.527-4.479,25.87-2.566C155.415,367.529,163.246,374.922,164.344,386.098"/>
			<path style="fill:#EAE8F9;" d="M164.344,386.098c3.589-9.111,13.955-14.032,23.743-14.323s19.257,3.097,28.56,6.154
				c9.303,3.057,19.088,5.856,28.764,4.355l-16.479-12.608c-9.8,2.082-12.791,0.568-21.447-1.493
				c-8.656-2.06-17.527-4.479-25.87-2.566C173.273,367.529,165.442,374.922,164.344,386.098"/>
		</g>
		<g>
			<path style="fill:#C3C3ED;" d="M140.601,371.775c-9.788-0.291-19.258,3.097-28.561,6.154c-9.303,3.057-19.088,5.856-28.764,4.355
				l-5.981,16.313c0,0,20.897-1.373,30.886-2.193c9.989-0.821,20.158-1.73,30.668-1.652c10.51,0.078,21.641,1.399,25.495,3.845
				v-12.498C160.755,376.987,150.389,372.066,140.601,371.775z"/>
			<path style="fill:#C3C3ED;" d="M188.087,371.775c9.788-0.291,19.257,3.097,28.56,6.154c9.303,3.057,19.088,5.856,28.764,4.355
				l5.981,16.313c0,0-20.897-1.373-30.886-2.193c-9.989-0.821-20.158-1.73-30.668-1.652c-10.51,0.078-21.641,1.399-25.495,3.845
				v-12.498C167.933,376.987,178.299,372.066,188.087,371.775z"/>
		</g>
		<g>
			<g>
				<path style="fill:#ACABDF;" d="M168.207,390.029c0.999-2.114,2.731-3.857,4.648-5.239c1.94-1.373,4.097-2.417,6.326-3.213
					c4.463-1.606,9.215-2.279,13.932-2.298c4.713,0.015,9.387,0.607,13.946,1.57c4.566,0.95,9.03,2.219,13.451,3.651
					c-4.615-0.578-9.175-1.399-13.732-2.034c-4.557-0.623-9.114-1.107-13.664-1.085c-4.531-0.022-9.07,0.531-13.431,1.752
					c-2.171,0.629-4.308,1.418-6.28,2.525C171.425,386.749,169.605,388.163,168.207,390.029z"/>
				<path style="fill:#ACABDF;" d="M170.997,392.771c2.175-1.565,4.686-2.648,7.243-3.487c2.572-0.817,5.222-1.389,7.903-1.729
					c5.375-0.707,10.806-0.484,16.14,0.11c5.337,0.639,10.59,1.669,15.789,2.811c5.203,1.133,10.374,2.297,15.623,3.289
					c-5.345-0.121-10.665-0.845-15.924-1.676c-5.264-0.814-10.487-1.746-15.73-2.336c-2.618-0.326-5.243-0.541-7.868-0.646
					c-2.629-0.125-5.248-0.105-7.866,0.075c-2.616,0.193-5.229,0.528-7.799,1.094C175.933,390.824,173.403,391.61,170.997,392.771z"
					/>
			</g>
			<g>
				<path style="fill:#ACABDF;" d="M160.481,390.029c-0.999-2.114-2.731-3.857-4.648-5.239c-1.94-1.373-4.097-2.417-6.326-3.213
					c-4.463-1.606-9.215-2.279-13.933-2.298c-4.713,0.015-9.387,0.607-13.946,1.57c-4.566,0.95-9.03,2.219-13.451,3.651
					c4.615-0.578,9.175-1.399,13.732-2.034c4.557-0.623,9.114-1.107,13.664-1.085c4.531-0.022,9.07,0.531,13.431,1.752
					c2.171,0.629,4.308,1.418,6.28,2.525C157.263,386.749,159.083,388.163,160.481,390.029z"/>
				<path style="fill:#ACABDF;" d="M157.691,392.771c-2.175-1.565-4.686-2.648-7.243-3.487c-2.572-0.817-5.222-1.389-7.903-1.729
					c-5.375-0.707-10.806-0.484-16.14,0.11c-5.337,0.639-10.59,1.669-15.789,2.811c-5.203,1.133-10.374,2.297-15.623,3.289
					c5.345-0.121,10.664-0.845,15.924-1.676c5.264-0.814,10.487-1.746,15.73-2.336c2.618-0.326,5.243-0.541,7.868-0.646
					c2.629-0.125,5.248-0.105,7.865,0.075c2.616,0.193,5.229,0.528,7.799,1.094C152.755,390.824,155.285,391.61,157.691,392.771z"/>
			</g>
		</g>
		<path style="fill:#E263A2;" d="M164.344,387.286c-6.246,0-11.31,5.064-11.31,11.31h22.619
			C175.654,392.35,170.59,387.286,164.344,387.286z"/>
	</g>
	<g>
		<path style="fill:#ACACE4;" d="M372.008,307.596H133.442c-3.783,0-6.85-3.067-6.85-6.85v-149.7c0-3.783,3.067-6.849,6.85-6.849
			h238.566c3.783,0,6.849,3.067,6.849,6.849v149.7C378.857,304.529,375.791,307.596,372.008,307.596z"/>
		<path style="fill:#3E3D3B;" d="M366.304,307.596H127.737c-3.783,0-6.849-3.067-6.849-6.85v-149.7c0-3.783,3.067-6.849,6.849-6.849
			h238.566c3.783,0,6.849,3.067,6.849,6.849v149.7C373.153,304.529,370.087,307.596,366.304,307.596z"/>
		<path style="fill:#EAE8F9;" d="M120.888,276.823v23.923c0,3.783,3.067,6.85,6.849,6.85h238.566c3.783,0,6.849-3.067,6.849-6.85
			v-23.923H120.888z"/>
		<rect x="127.824" y="150.399" style="fill:#81B1FF;" width="238.392" height="119.435"/>
		<rect x="210.947" y="307.596" style="fill:#ACABDF;" width="72.147" height="28.895"/>
		<path style="fill:#EAE8F9;" d="M310.844,345.951H183.197l0,0c0-5.225,4.236-9.461,9.461-9.461h108.726
			C306.608,336.491,310.844,340.726,310.844,345.951L310.844,345.951z"/>
		<rect x="210.947" y="307.596" style="fill:#ACABDF;" width="72.147" height="3.503"/>
	</g>
	<g>
		<path style="fill:#ACACE4;" d="M348.567,257.19h-68.342c-4.798,0-8.687-3.889-8.687-8.687V117.956
			c0-4.798,3.889-8.687,8.687-8.687h68.342c4.798,0,8.687,3.889,8.687,8.687v130.547C357.254,253.301,353.365,257.19,348.567,257.19
			z"/>
		<path style="fill:#EAE8F9;" d="M345.174,253.797h-68.342c-4.798,0-8.687-3.889-8.687-8.687V114.563
			c0-4.798,3.889-8.687,8.687-8.687h68.342c4.798,0,8.687,3.889,8.687,8.687V245.11
			C353.861,249.908,349.971,253.797,345.174,253.797z"/>
		<g>
			<g>
				<path style="fill:#C3C3ED;" d="M290.085,129.179h-10.598c-1.069,0-1.936-0.867-1.936-1.936l0,0c0-1.069,0.867-1.936,1.936-1.936
					h10.598c1.069,0,1.936,0.867,1.936,1.936l0,0C292.021,128.312,291.154,129.179,290.085,129.179z"/>
				<path style="fill:#C3C3ED;" d="M307.987,129.179h-10.598c-1.069,0-1.936-0.867-1.936-1.936l0,0c0-1.069,0.867-1.936,1.936-1.936
					h10.598c1.069,0,1.936,0.867,1.936,1.936l0,0C309.923,128.312,309.056,129.179,307.987,129.179z"/>
				<path style="fill:#C3C3ED;" d="M325.888,129.179H315.29c-1.069,0-1.936-0.867-1.936-1.936l0,0c0-1.069,0.867-1.936,1.936-1.936
					h10.598c1.069,0,1.936,0.867,1.936,1.936l0,0C327.824,128.312,326.958,129.179,325.888,129.179z"/>
				<path style="fill:#C3C3ED;" d="M343.79,129.179h-10.598c-1.069,0-1.936-0.867-1.936-1.936l0,0c0-1.069,0.867-1.936,1.936-1.936
					h10.598c1.069,0,1.936,0.867,1.936,1.936l0,0C345.726,128.312,344.859,129.179,343.79,129.179z"/>
			</g>
			<g>
				<path style="fill:#C3C3ED;" d="M307.053,140.632h-27.565c-1.069,0-1.936-0.867-1.936-1.936l0,0c0-1.069,0.867-1.936,1.936-1.936
					h27.565c1.069,0,1.936,0.867,1.936,1.936l0,0C308.989,139.765,308.122,140.632,307.053,140.632z"/>
				<path style="fill:#C3C3ED;" d="M316.471,140.632h-2.114c-1.069,0-1.936-0.867-1.936-1.936l0,0c0-1.069,0.867-1.936,1.936-1.936
					h2.114c1.069,0,1.936,0.867,1.936,1.936l0,0C318.407,139.765,317.54,140.632,316.471,140.632z"/>
				<path style="fill:#C3C3ED;" d="M325.888,140.632h-2.114c-1.069,0-1.936-0.867-1.936-1.936l0,0c0-1.069,0.867-1.936,1.936-1.936
					h2.114c1.069,0,1.936,0.867,1.936,1.936l0,0C327.824,139.765,326.958,140.632,325.888,140.632z"/>
				<path style="fill:#C3C3ED;" d="M343.79,140.632h-10.598c-1.069,0-1.936-0.867-1.936-1.936l0,0c0-1.069,0.867-1.936,1.936-1.936
					h10.598c1.069,0,1.936,0.867,1.936,1.936l0,0C345.726,139.765,344.859,140.632,343.79,140.632z"/>
			</g>
			<g>
				<path style="fill:#C3C3ED;" d="M290.085,152.086h-10.598c-1.069,0-1.936-0.867-1.936-1.936l0,0c0-1.069,0.867-1.936,1.936-1.936
					h10.598c1.069,0,1.936,0.867,1.936,1.936l0,0C292.021,151.219,291.154,152.086,290.085,152.086z"/>
				<path style="fill:#C3C3ED;" d="M299.503,152.086h-2.114c-1.069,0-1.936-0.867-1.936-1.936l0,0c0-1.069,0.867-1.936,1.936-1.936
					h2.114c1.069,0,1.936,0.867,1.936,1.936l0,0C301.439,151.219,300.572,152.086,299.503,152.086z"/>
				<path style="fill:#C3C3ED;" d="M308.921,152.086h-2.114c-1.069,0-1.936-0.867-1.936-1.936l0,0c0-1.069,0.867-1.936,1.936-1.936
					h2.114c1.069,0,1.936,0.867,1.936,1.936l0,0C310.857,151.219,309.99,152.086,308.921,152.086z"/>
				<path style="fill:#C3C3ED;" d="M343.79,152.086h-27.565c-1.069,0-1.936-0.867-1.936-1.936l0,0c0-1.069,0.867-1.936,1.936-1.936
					h27.565c1.069,0,1.936,0.867,1.936,1.936l0,0C345.726,151.219,344.859,152.086,343.79,152.086z"/>
			</g>
			<g>
				<path style="fill:#C3C3ED;" d="M333.192,182.573h10.598c1.069,0,1.936,0.867,1.936,1.936l0,0c0,1.069-0.867,1.936-1.936,1.936
					h-10.598c-1.069,0-1.936-0.867-1.936-1.936l0,0C331.256,183.44,332.123,182.573,333.192,182.573z"/>
				<path style="fill:#C3C3ED;" d="M315.29,182.573h10.598c1.069,0,1.936,0.867,1.936,1.936l0,0c0,1.069-0.867,1.936-1.936,1.936
					H315.29c-1.069,0-1.936-0.867-1.936-1.936l0,0C313.354,183.44,314.221,182.573,315.29,182.573z"/>
				<path style="fill:#C3C3ED;" d="M297.389,182.573h10.598c1.069,0,1.936,0.867,1.936,1.936l0,0c0,1.069-0.867,1.936-1.936,1.936
					h-10.598c-1.069,0-1.936-0.867-1.936-1.936l0,0C295.453,183.44,296.32,182.573,297.389,182.573z"/>
				<path style="fill:#C3C3ED;" d="M279.487,182.573h10.598c1.069,0,1.936,0.867,1.936,1.936l0,0c0,1.069-0.867,1.936-1.936,1.936
					h-10.598c-1.069,0-1.936-0.867-1.936-1.936l0,0C277.551,183.44,278.418,182.573,279.487,182.573z"/>
			</g>
			<g>
				<path style="fill:#C3C3ED;" d="M316.224,171.12h27.565c1.069,0,1.936,0.867,1.936,1.936l0,0c0,1.069-0.867,1.936-1.936,1.936
					h-27.565c-1.069,0-1.936-0.867-1.936-1.936l0,0C314.288,171.987,315.155,171.12,316.224,171.12z"/>
				<path style="fill:#C3C3ED;" d="M306.807,171.12h2.114c1.069,0,1.936,0.867,1.936,1.936l0,0c0,1.069-0.867,1.936-1.936,1.936
					h-2.114c-1.069,0-1.936-0.867-1.936-1.936l0,0C304.87,171.987,305.737,171.12,306.807,171.12z"/>
				<path style="fill:#C3C3ED;" d="M297.389,171.12h2.114c1.069,0,1.936,0.867,1.936,1.936l0,0c0,1.069-0.867,1.936-1.936,1.936
					h-2.114c-1.069,0-1.936-0.867-1.936-1.936l0,0C295.453,171.987,296.32,171.12,297.389,171.12z"/>
				<path style="fill:#C3C3ED;" d="M279.487,171.12h10.598c1.069,0,1.936,0.867,1.936,1.936l0,0c0,1.069-0.867,1.936-1.936,1.936
					h-10.598c-1.069,0-1.936-0.867-1.936-1.936l0,0C277.551,171.987,278.418,171.12,279.487,171.12z"/>
			</g>
			<g>
				<path style="fill:#C3C3ED;" d="M333.192,159.667h10.598c1.069,0,1.936,0.867,1.936,1.936l0,0c0,1.069-0.867,1.936-1.936,1.936
					h-10.598c-1.069,0-1.936-0.867-1.936-1.936l0,0C331.256,160.533,332.123,159.667,333.192,159.667z"/>
				<path style="fill:#C3C3ED;" d="M323.774,159.667h2.114c1.069,0,1.936,0.867,1.936,1.936l0,0c0,1.069-0.867,1.936-1.936,1.936
					h-2.114c-1.069,0-1.936-0.867-1.936-1.936l0,0C321.838,160.533,322.705,159.667,323.774,159.667z"/>
				<path style="fill:#C3C3ED;" d="M314.356,159.667h2.114c1.069,0,1.936,0.867,1.936,1.936l0,0c0,1.069-0.867,1.936-1.936,1.936
					h-2.114c-1.069,0-1.936-0.867-1.936-1.936l0,0C312.42,160.533,313.287,159.667,314.356,159.667z"/>
				<path style="fill:#C3C3ED;" d="M279.487,159.667h27.565c1.069,0,1.936,0.867,1.936,1.936l0,0c0,1.069-0.867,1.936-1.936,1.936
					h-27.565c-1.069,0-1.936-0.867-1.936-1.936l0,0C277.551,160.533,278.418,159.667,279.487,159.667z"/>
			</g>
			<g>
				<path style="fill:#C3C3ED;" d="M290.085,197.899h-10.598c-1.069,0-1.936-0.867-1.936-1.936l0,0c0-1.069,0.867-1.936,1.936-1.936
					h10.598c1.069,0,1.936,0.867,1.936,1.936l0,0C292.021,197.032,291.154,197.899,290.085,197.899z"/>
				<path style="fill:#C3C3ED;" d="M307.987,197.899h-10.598c-1.069,0-1.936-0.867-1.936-1.936l0,0c0-1.069,0.867-1.936,1.936-1.936
					h10.598c1.069,0,1.936,0.867,1.936,1.936l0,0C309.923,197.032,309.056,197.899,307.987,197.899z"/>
				<path style="fill:#C3C3ED;" d="M325.888,197.899H315.29c-1.069,0-1.936-0.867-1.936-1.936l0,0c0-1.069,0.867-1.936,1.936-1.936
					h10.598c1.069,0,1.936,0.867,1.936,1.936l0,0C327.824,197.032,326.958,197.899,325.888,197.899z"/>
				<path style="fill:#C3C3ED;" d="M343.79,197.899h-10.598c-1.069,0-1.936-0.867-1.936-1.936l0,0c0-1.069,0.867-1.936,1.936-1.936
					h10.598c1.069,0,1.936,0.867,1.936,1.936l0,0C345.726,197.032,344.859,197.899,343.79,197.899z"/>
			</g>
		</g>
		<g>
			<g>
				<polygon style="fill:#E263A2;" points="326.564,244.149 324.561,239.054 319.485,241.106 326.552,224.662 333.631,227.705 				
					"/>
				<polygon style="fill:#E263A2;" points="338.647,244.149 340.65,239.054 345.726,241.106 338.659,224.662 331.58,227.705 				"/>
			</g>
			<circle style="fill:#C1327A;" cx="332.606" cy="222.053" r="10.687"/>
			<path style="fill:#E263A2;" d="M332.605,228.801c-3.721,0-6.748-3.027-6.748-6.748s3.027-6.748,6.748-6.748
				c3.721,0,6.749,3.027,6.749,6.748S336.326,228.801,332.605,228.801z"/>
		</g>
	</g>
	<g>
		<path style="fill:#2E56C4;" d="M141.375,149.446c22.4-7.297,41.76-9.525,43.242-4.975l-9.91-30.419
			c-1.482-4.55-20.842-2.323-43.242,4.975s-39.357,16.901-37.874,21.451l9.91,30.419
			C102.018,166.347,118.975,156.743,141.375,149.446z"/>
		<g>
			<path style="fill:#214AA5;" d="M219.282,100.589l-96.769-9.042h0L86.076,123.7L49.64,155.854h0l3.588,0.49l0.16-0.14l46.75,4.368
				l-6.546-20.094c-1.482-4.55,15.475-14.154,37.874-21.451c22.4-7.297,41.76-9.524,43.242-4.974l6.546,20.094l35.206-31.067
				l0.212,0.019L219.282,100.589L219.282,100.589L219.282,100.589z"/>
		</g>
		<path style="fill:#164282;" d="M174.345,113.43c-0.096-0.116-0.208-0.226-0.335-0.331c-0.041-0.034-0.077-0.069-0.121-0.101
			c-0.175-0.129-0.371-0.248-0.593-0.358c-0.041-0.02-0.09-0.038-0.133-0.057c-0.193-0.088-0.402-0.169-0.626-0.244
			c-0.078-0.026-0.158-0.051-0.24-0.076c-0.241-0.072-0.498-0.137-0.771-0.195c-0.051-0.011-0.098-0.024-0.15-0.035
			c-0.329-0.065-0.683-0.12-1.055-0.166c-0.091-0.011-0.188-0.02-0.281-0.03c-0.302-0.033-0.617-0.06-0.945-0.082
			c-0.11-0.007-0.219-0.015-0.332-0.021c-0.429-0.022-0.873-0.038-1.342-0.041c-0.001,0-0.001,0-0.002,0
			c-0.466-0.003-0.957,0.006-1.461,0.021c-0.131,0.004-0.265,0.009-0.398,0.015c-0.42,0.016-0.851,0.039-1.295,0.067
			c-0.111,0.007-0.219,0.013-0.331,0.021c-0.556,0.039-1.129,0.087-1.719,0.145c-0.088,0.008-0.18,0.019-0.269,0.028
			c-0.509,0.051-1.03,0.11-1.563,0.175c-0.156,0.019-0.312,0.038-0.47,0.058c-0.575,0.073-1.161,0.153-1.761,0.241
			c-0.056,0.008-0.109,0.015-0.165,0.023c-0.666,0.099-1.349,0.209-2.045,0.326c-0.146,0.025-0.295,0.051-0.442,0.077
			c-0.57,0.098-1.15,0.203-1.738,0.313c-0.161,0.03-0.321,0.06-0.483,0.09c-0.732,0.14-1.474,0.287-2.231,0.445c0,0,0,0,0,0
			l9.91,30.419c13.134-2.738,22.636-2.82,23.657,0.314l-9.91-30.418c-0.057-0.175-0.15-0.337-0.259-0.493
			C174.417,113.515,174.38,113.473,174.345,113.43z"/>
	</g>
	<g>
		<path style="fill:#EAE8F9;" d="M91.482,200.379L91.482,200.379c-1.564-0.006-2.828-1.279-2.822-2.844l0.308-78.98
			c0.006-1.564,1.279-2.828,2.844-2.822l0,0c1.564,0.006,2.828,1.279,2.822,2.844l-0.308,78.98
			C94.319,199.122,93.046,200.385,91.482,200.379z"/>
		<path style="fill:#EAE8F9;" d="M94.455,215.72l-6.067-0.024c-2.924-0.011-4.901-2.986-3.78-5.686l5.395-12.997l2.984,0.012
			l5.293,13.039C99.38,212.773,97.379,215.732,94.455,215.72z"/>
		<path style="fill:#F6DE2F;" d="M97.407,197.903c-0.013,3.267-2.671,5.905-5.938,5.892c-3.267-0.013-5.905-2.671-5.892-5.938
			c0.013-3.267,2.671-5.905,5.938-5.892C94.781,191.977,97.419,194.636,97.407,197.903z"/>
	</g>
	<g>
		<g>
			<path style="fill:#C1327A;" d="M163.692,345.951H85.931c-4.798,0-8.687-3.889-8.687-8.687v-72.152
				c0-4.798,3.889-8.687,8.687-8.687h77.761c4.798,0,8.687,3.889,8.687,8.687v72.152
				C172.379,342.062,168.49,345.951,163.692,345.951z"/>
			<path style="fill:#E263A2;" d="M160.299,342.558H82.538c-4.798,0-8.687-3.889-8.687-8.687v-72.152
				c0-4.798,3.889-8.687,8.687-8.687h77.761c4.798,0,8.687,3.889,8.687,8.687v72.152
				C168.986,338.668,165.096,342.558,160.299,342.558z"/>
		</g>
		<path style="fill:#EAE8F9;" d="M113.484,275.047l32.136,18.554c3.228,1.864,3.228,6.523,0,8.387l-32.136,18.554
			c-3.228,1.864-7.263-0.466-7.263-4.194v-37.108C106.221,275.513,110.256,273.184,113.484,275.047z"/>
	</g>
	<g>
		<g>
			<path style="fill:#FFFFFF;" d="M224.542,184.15h-81.446c-1.069,0-1.936-0.867-1.936-1.936l0,0c0-1.069,0.867-1.936,1.936-1.936
				h81.446c1.069,0,1.936,0.867,1.936,1.936l0,0C226.478,183.283,225.611,184.15,224.542,184.15z"/>
			<path style="fill:#F6DE2F;" d="M236.822,185.847c-0.038,0-0.077-0.001-0.116-0.004c-0.454-0.031-0.876-0.243-1.172-0.589
				l-3.317-3.873c-0.609-0.712-0.527-1.782,0.185-2.392c0.712-0.609,1.783-0.526,2.392,0.185l2.194,2.562l10.869-9.637
				c0.7-0.622,1.773-0.557,2.395,0.144c0.622,0.701,0.557,1.773-0.144,2.395l-12.161,10.782
				C237.637,185.696,237.236,185.847,236.822,185.847z"/>
		</g>
		<g>
			<path style="fill:#FFFFFF;" d="M224.542,201.353h-81.446c-1.069,0-1.936-0.867-1.936-1.936l0,0c0-1.069,0.867-1.936,1.936-1.936
				h81.446c1.069,0,1.936,0.867,1.936,1.936l0,0C226.478,200.486,225.611,201.353,224.542,201.353z"/>
			<path style="fill:#F6DE2F;" d="M236.822,203.05c-0.038,0-0.077-0.001-0.116-0.004c-0.454-0.031-0.876-0.243-1.172-0.589
				l-3.317-3.872c-0.609-0.712-0.527-1.782,0.185-2.392c0.712-0.609,1.783-0.526,2.392,0.185l2.194,2.562l10.869-9.637
				c0.7-0.622,1.773-0.557,2.395,0.144c0.622,0.701,0.557,1.773-0.144,2.395l-12.161,10.782
				C237.637,202.899,237.236,203.05,236.822,203.05z"/>
		</g>
		<g>
			<path style="fill:#FFFFFF;" d="M224.542,218.556h-81.446c-1.069,0-1.936-0.867-1.936-1.936l0,0c0-1.069,0.867-1.936,1.936-1.936
				h81.446c1.069,0,1.936,0.867,1.936,1.936l0,0C226.478,217.689,225.611,218.556,224.542,218.556z"/>
			<path style="fill:#F6DE2F;" d="M236.822,220.253c-0.038,0-0.077-0.001-0.116-0.004c-0.454-0.031-0.876-0.243-1.172-0.589
				l-3.317-3.873c-0.609-0.712-0.527-1.782,0.185-2.392c0.712-0.609,1.783-0.526,2.392,0.185l2.194,2.562l10.869-9.637
				c0.7-0.622,1.773-0.557,2.395,0.144c0.622,0.701,0.557,1.773-0.144,2.395l-12.161,10.782
				C237.637,220.102,237.236,220.253,236.822,220.253z"/>
		</g>
		<g>
			<path style="fill:#FFFFFF;" d="M224.542,235.759h-81.446c-1.069,0-1.936-0.867-1.936-1.936l0,0c0-1.069,0.867-1.936,1.936-1.936
				h81.446c1.069,0,1.936,0.867,1.936,1.936l0,0C226.478,234.892,225.611,235.759,224.542,235.759z"/>
			<path style="fill:#F6DE2F;" d="M236.822,237.456c-0.038,0-0.077-0.001-0.116-0.004c-0.454-0.031-0.876-0.243-1.172-0.589
				l-3.317-3.872c-0.609-0.712-0.527-1.782,0.185-2.392c0.712-0.609,1.783-0.526,2.392,0.185l2.194,2.562l10.869-9.637
				c0.7-0.622,1.773-0.557,2.395,0.144c0.622,0.701,0.557,1.773-0.144,2.395l-12.161,10.782
				C237.637,237.305,237.236,237.456,236.822,237.456z"/>
		</g>
	</g>
	<g>
		<path style="fill:#E263A2;" d="M387.523,103.939h-5.822v-5.821c0-1.069-0.867-1.936-1.936-1.936c-1.069,0-1.936,0.867-1.936,1.936
			v5.821h-5.822c-1.069,0-1.936,0.867-1.936,1.936c0,1.069,0.867,1.936,1.936,1.936h5.822v5.821c0,1.069,0.867,1.936,1.936,1.936
			c1.069,0,1.936-0.867,1.936-1.936v-5.821h5.822c1.069,0,1.936-0.867,1.936-1.936C389.459,104.806,388.592,103.939,387.523,103.939
			z"/>
		<path style="fill:#F6DE2F;" d="M67.091,236.408h-5.822v-5.822c0-1.069-0.867-1.936-1.936-1.936c-1.069,0-1.936,0.867-1.936,1.936
			v5.822h-5.821c-1.069,0-1.936,0.867-1.936,1.936c0,1.069,0.867,1.936,1.936,1.936h5.821v5.821c0,1.069,0.867,1.936,1.936,1.936
			c1.069,0,1.936-0.867,1.936-1.936v-5.821h5.822c1.069,0,1.936-0.867,1.936-1.936C69.027,237.275,68.16,236.408,67.091,236.408z"/>
		<path style="fill:#81B1FF;" d="M328.347,369.821h-5.822V364c0-1.069-0.867-1.936-1.936-1.936s-1.936,0.867-1.936,1.936v5.822
			h-5.822c-1.069,0-1.936,0.867-1.936,1.936c0,1.069,0.867,1.936,1.936,1.936h5.822v5.821c0,1.069,0.867,1.936,1.936,1.936
			s1.936-0.867,1.936-1.936v-5.821h5.822c1.069,0,1.936-0.867,1.936-1.936C330.283,370.688,329.416,369.821,328.347,369.821z"/>
		<path style="fill:#81B1FF;" d="M400.167,128.082c0,1.076-0.872,1.949-1.949,1.949c-1.076,0-1.949-0.872-1.949-1.949
			s0.872-1.949,1.949-1.949C399.295,126.133,400.167,127.006,400.167,128.082z"/>
		<path style="fill:#E263A2;" d="M41.713,262.506c0,1.076-0.873,1.949-1.949,1.949s-1.949-0.872-1.949-1.949
			c0-1.076,0.872-1.949,1.949-1.949S41.713,261.43,41.713,262.506z"/>
		<path style="fill:#F6DE2F;" d="M285.043,362.064c0,1.076-0.872,1.949-1.949,1.949c-1.076,0-1.949-0.872-1.949-1.949
			c0-1.076,0.872-1.949,1.949-1.949C284.17,360.115,285.043,360.987,285.043,362.064z"/>
		<path style="fill:#E263A2;" d="M293.97,404.031c0,1.076-0.872,1.949-1.949,1.949c-1.076,0-1.949-0.872-1.949-1.949
			c0-1.076,0.872-1.949,1.949-1.949C293.098,402.083,293.97,402.955,293.97,404.031z"/>
		<circle style="fill:#F6DE2F;" cx="426.212" cy="89.598" r="1.949"/>
		<path style="fill:#81B1FF;" d="M50.264,188.875c0,1.076-0.873,1.949-1.949,1.949s-1.949-0.872-1.949-1.949
			c0-1.076,0.873-1.949,1.949-1.949S50.264,187.799,50.264,188.875z"/>
	</g>
</g>
</svg>
