<svg xmlns="http://www.w3.org/2000/svg" viewBox="0 0 16 16" fill="none">
  <path d="M12.6663 1.33325H3.33301C2.80257 1.33325 2.29387 1.54397 1.91879 1.91904C1.54372 2.29411 1.33301 2.80282 1.33301 3.33325V4.11325C1.33291 4.38855 1.38965 4.6609 1.49967 4.91325V4.95325C1.59386 5.16723 1.72727 5.36169 1.89301 5.52659L5.99967 9.60659V13.9999C5.99945 14.1132 6.0281 14.2247 6.08292 14.3238C6.13775 14.423 6.21693 14.5065 6.31301 14.5666C6.4191 14.6323 6.54152 14.667 6.66634 14.6666C6.7707 14.666 6.87346 14.6408 6.96634 14.5933L9.63301 13.2599C9.74295 13.2045 9.83541 13.1198 9.90013 13.015C9.96485 12.9103 9.9993 12.7897 9.99967 12.6666V9.60659L14.0797 5.52659C14.2454 5.36169 14.3788 5.16723 14.473 4.95325V4.91325C14.5922 4.66287 14.6581 4.39044 14.6663 4.11325V3.33325C14.6663 2.80282 14.4556 2.29411 14.0806 1.91904C13.7055 1.54397 13.1968 1.33325 12.6663 1.33325ZM8.85967 8.85992C8.79789 8.92221 8.749 8.99609 8.71583 9.07731C8.68265 9.15854 8.66583 9.24551 8.66634 9.33325V12.2533L7.33301 12.9199V9.33325C7.33352 9.24551 7.3167 9.15854 7.28352 9.07731C7.25035 8.99609 7.20146 8.92221 7.13967 8.85992L3.60634 5.33325H12.393L8.85967 8.85992ZM13.333 3.99992H2.66634V3.33325C2.66634 3.15644 2.73658 2.98687 2.8616 2.86185C2.98663 2.73682 3.1562 2.66659 3.33301 2.66659H12.6663C12.8432 2.66659 13.0127 2.73682 13.1377 2.86185C13.2628 2.98687 13.333 3.15644 13.333 3.33325V3.99992Z" fill="#3365FC"/>
</svg>