<svg width="239" height="31" viewBox="0 0 239 31" fill="none" xmlns="http://www.w3.org/2000/svg">
<g id="Group">
<g id="Group_2">
<g id="Group_3">
<path id="Vector" d="M55.661 0L58.6531 1.23529L82.7551 28.5765C83.5512 29.4824 82.9198 30.9098 81.7119 30.9098H28.457L55.661 0Z" fill="#2044A0"/>
<path id="Vector_2" d="M26.8926 30.8824H37.2416L58.7632 6.45098C60.9867 3.95294 59.2024 0 55.8534 0C54.7279 0 53.6847 0.466667 52.9436 1.31765L26.8926 30.8824Z" fill="#C7DAFF"/>
</g>
<g id="Group_4">
<path id="Vector_3" d="M27.9363 0L30.9285 1.23529L57.0618 30.8824H0.732422L27.9363 0Z" fill="#3366FF"/>
<path id="Vector_4" d="M0.704741 30.8824H9.51651L31.0381 6.45098C33.2342 3.95294 31.4498 0 28.1008 0C26.9753 0 25.9322 0.466667 25.191 1.31765L0.183174 29.7294C-0.228591 30.1686 0.100819 30.8824 0.704741 30.8824Z" fill="#C7DAFF"/>
</g>
</g>
<g id="Group 7">
<g id="Group_5">
<path id="Vector_5" d="M116.533 12.7413L111.812 22.5413H108.737L103.961 12.7138L102.561 24.7373H98.5527L100.941 5.35693H104.263L110.247 18.0667L116.176 5.35693H119.553L121.914 24.7373H117.933L116.533 12.7413Z" fill="#28293D"/>
<path id="Vector_6" d="M138.027 24.7373H125.619V5.35693H137.78V8.81576H129.545V13.4275H136.764V16.9413H129.545V21.2785H138.054V24.7373H138.027Z" fill="#28293D"/>
<path id="Vector_7" d="M149.228 8.81576V24.7373H145.33V8.81576H139.977V5.35693H154.58V8.81576H149.228Z" fill="#28293D"/>
<path id="Vector_8" d="M156.172 19.1098H160.07C160.097 20.4824 161.442 21.6353 163.254 21.6353C165.039 21.6353 166.164 20.6745 166.164 19.302C166.164 18.2588 165.341 17.4627 163.721 16.9686L161.36 16.2823C157.105 15.1569 156.364 12.5765 156.364 10.8471C156.364 7.36078 159.356 5 163.062 5C166.741 5 169.541 7.22353 169.541 10.902H165.642C165.642 9.52941 164.682 8.45882 163.007 8.45882C161.47 8.45882 160.344 9.44706 160.344 10.7647C160.344 11.2588 160.482 12.2196 162.513 12.8235L164.682 13.4549C167.619 14.2784 170.172 15.7882 170.172 19.1098C170.172 22.9255 166.878 25.0667 163.227 25.0667C159.027 25.0667 156.172 22.5137 156.172 19.1098Z" fill="#28293D"/>
<path id="Vector_9" d="M186.039 24.7373H173.631V5.35693H185.792V8.81576H177.556V13.4275H184.776V16.9413H177.556V21.2785H186.066V24.7373H186.039Z" fill="#28293D"/>
<path id="Vector_10" d="M204.267 24.7373H200.754L193.726 12.5765V24.7373H189.828V5.35693H193.452L200.369 17.3805V5.35693H204.267V24.7373Z" fill="#28293D"/>
<path id="Vector_11" d="M212.2 20.0981L210.663 24.7373H206.49L213.71 5.35693H217.937L225.129 24.7373H221.012L219.447 20.0981H212.2ZM215.796 9.41968L213.353 16.6942H218.267L215.796 9.41968Z" fill="#28293D"/>
<path id="Vector_12" d="M233.2 8.81576V24.7373H229.302V8.81576H223.949V5.35693H238.553V8.81576H233.2Z" fill="#28293D"/>
</g>
</g>
</g>
</svg>
