<svg width="24" height="24" viewBox="0 0 24 24" fill="none" xmlns="http://www.w3.org/2000/svg">
<g id="icons8-user.8 1">
<path id="Vector" d="M16.621 17.38C15.243 18.118 13.669 18.54 11.998 18.54C10.328 18.54 8.755 18.12 7.377 17.38C4.401 18.162 2.069 20.015 1 24H23C21.931 20.014 19.599 18.161 16.621 17.38ZM12 16C16.418 16 20 12.418 20 8C20 3.582 16.418 0 12 0C7.582 0 4 3.582 4 8C4 12.418 7.582 16 12 16ZM17.349 10.667C16.364 12.635 14.351 14 12 14C9.649 14 7.636 12.635 6.651 10.667H17.349Z" fill="#F1F1F3"/>
</g>
</svg>
